<?xml version="1.0" standalone="no"?>
<!DOCTYPE svg PUBLIC "-//W3C//DTD SVG 20010904//EN"
 "http://www.w3.org/TR/2001/REC-SVG-20010904/DTD/svg10.dtd">
<svg version="1.0" xmlns="http://www.w3.org/2000/svg"
 width="988.000000pt" height="342.000000pt" viewBox="0 0 988.000000 342.000000"
 preserveAspectRatio="xMidYMid meet">
<metadata>
Created by potrace 1.15, written by Peter Selinger 2001-2017
</metadata>
<g transform="translate(0.000000,342.000000) scale(0.100000,-0.100000)"
fill="#000000" stroke="none">
<path d="M1326 2724 c-226 -45 -406 -140 -569 -301 -208 -206 -317 -468 -317
-763 0 -309 109 -579 317 -785 166 -164 381 -273 603 -306 115 -16 312 -6 420
22 481 124 820 558 820 1048 0 295 -107 565 -304 769 -163 169 -355 273 -589
317 -97 18 -287 18 -381 -1z m422 -243 c149 -43 309 -143 400 -249 27 -31 52
-62 55 -69 4 -6 -18 -33 -54 -63 l-60 -53 -16 24 c-9 13 -48 55 -86 92 -165
159 -420 223 -647 162 -191 -51 -380 -212 -452 -385 l-21 -52 444 -444 c244
-244 448 -444 454 -444 23 0 114 51 175 96 35 27 86 76 113 109 47 59 119 193
132 248 l7 27 -186 0 -186 0 0 85 0 85 278 0 278 0 -8 -85 c-29 -335 -261
-625 -588 -735 l-64 -21 -515 515 -515 515 12 48 c19 76 106 242 162 311 121
148 294 253 490 297 94 21 302 14 398 -14z m-653 -1272 l420 -421 -80 5 c-355
25 -673 313 -750 679 -13 59 -20 158 -12 158 1 0 191 -190 422 -421z"/>
<path d="M7270 1715 l0 -655 109 0 c104 0 109 1 104 20 -3 11 -2 31 1 46 l7
26 43 -40 c60 -55 127 -76 230 -70 100 5 176 37 240 101 86 87 122 194 113
341 -6 113 -34 190 -95 257 -58 65 -114 96 -203 115 -113 24 -214 -1 -286 -68
-17 -17 -36 -27 -42 -23 -8 4 -11 95 -11 303 l1 297 -105 3 -106 3 0 -656z
m531 -81 c49 -34 90 -101 96 -157 14 -126 -95 -247 -222 -247 -51 0 -136 49
-170 98 -40 58 -48 158 -17 218 45 87 114 127 210 120 48 -3 72 -10 103 -32z"/>
<path d="M4240 2283 c-61 -10 -175 -45 -219 -67 -101 -52 -206 -158 -260 -265
-80 -156 -81 -419 -2 -586 81 -172 217 -280 399 -315 100 -20 301 -8 383 22
219 81 341 266 365 551 l7 77 -277 0 -276 0 0 -100 0 -100 150 0 c170 0 167 2
129 -77 -94 -194 -414 -233 -579 -71 -76 75 -111 155 -118 267 -10 176 52 310
183 398 59 40 130 56 229 51 114 -5 172 -32 244 -114 l50 -56 96 52 c53 28 96
55 96 59 0 21 -85 122 -132 159 -123 94 -313 141 -468 115z"/>
<path d="M6088 1978 l-3 -133 -40 -5 -40 -5 0 -90 0 -90 43 -3 42 -3 0 -295 0
-294 105 0 105 0 2 293 3 292 75 5 75 5 3 92 3 92 -78 3 -78 3 -3 133 -3 132
-104 0 -104 0 -3 -132z"/>
<path d="M5353 1860 c-192 -40 -313 -199 -313 -410 1 -239 163 -410 390 -410
87 0 147 22 198 71 42 39 42 39 48 15 3 -14 3 -34 -1 -45 -6 -20 -3 -21 104
-21 l111 0 0 390 0 391 -107 -3 -108 -3 3 -32 c5 -43 -10 -48 -43 -13 -53 56
-190 89 -282 70z m199 -202 c87 -26 158 -140 144 -230 -18 -113 -114 -199
-222 -198 -36 0 -111 34 -142 63 -41 38 -62 91 -62 156 0 73 9 98 52 146 58
67 141 90 230 63z"/>
<path d="M6760 1859 c-162 -28 -246 -183 -175 -326 31 -62 71 -91 191 -139
107 -43 124 -57 124 -100 0 -45 -47 -84 -101 -84 -44 0 -110 29 -150 66 l-26
25 -58 -66 -58 -66 29 -30 c16 -17 58 -44 94 -62 61 -30 71 -32 175 -32 100 0
115 2 167 28 159 78 209 280 97 396 -25 26 -141 83 -205 100 -93 25 -122 84
-61 122 38 23 79 20 138 -11 22 -11 42 -20 44 -20 2 0 27 28 56 62 l51 61 -39
24 c-76 46 -198 68 -293 52z"/>
<path d="M8170 1829 c0 -5 74 -142 164 -302 216 -386 197 -344 176 -381 -47
-84 -250 -463 -256 -478 -6 -17 4 -18 117 -18 l124 1 305 580 c168 319 306
587 308 595 3 11 -18 14 -118 14 l-121 0 -105 -216 c-58 -119 -109 -213 -114
-208 -4 5 -59 102 -121 217 l-113 207 -123 0 c-80 0 -123 -4 -123 -11z"/>
</g>
</svg>
